<svg width="958" height="1114" viewBox="0 0 958 1114" fill="none" xmlns="http://www.w3.org/2000/svg">
<path d="M957.898 726.993C957.898 1025.63 743.466 1114 478.95 1114C214.433 1114 0 1025.63 0 726.993C0 428.36 72.0551 7.58853e-05 478.95 0C885.844 -7.58852e-05 957.898 428.36 957.898 726.993Z" fill="#90BCD1"/>
<ellipse cx="221.489" cy="258.295" rx="33.4885" ry="34.2951" fill="#332A2A"/>
<ellipse cx="466.489" cy="272.295" rx="33.4885" ry="34.2951" fill="#332A2A"/>
<path d="M247.611 365.906C305.759 346.129 391.699 357.972 431.907 382.03" stroke="black" stroke-width="6" stroke-linecap="round"/>
<path d="M191.014 175.747C233.907 162.279 268.601 228.689 314.5 214.5" stroke="black" stroke-width="6" stroke-linecap="round"/>
<path d="M430.538 154.086C498.212 96.8809 511.451 196.597 557.952 178.853" stroke="black" stroke-width="6" stroke-linecap="round"/>
</svg>
